<svg width="390" height="844" viewBox="0 0 390 844" fill="none" xmlns="http://www.w3.org/2000/svg">
<rect width="390" height="844" fill="#140233"/>
<rect opacity="0.4" y="449" width="390" height="395" fill="url(#paint0_linear_920_43867)"/>
<g opacity="0.3" filter="url(#filter0_f_920_43867)">
<ellipse cx="170.693" cy="75.339" rx="4.32133" ry="4.07238" fill="white"/>
<ellipse cx="128.56" cy="195.474" rx="4.32133" ry="4.07238" fill="white"/>
<ellipse opacity="0.5" cx="280.346" cy="80.9385" rx="2.70083" ry="2.54524" fill="white"/>
<ellipse opacity="0.5" cx="45.9145" cy="237.725" rx="2.70083" ry="2.54524" fill="white"/>
<ellipse cx="334.363" cy="331.39" rx="2.70083" ry="2.54524" fill="white"/>
<ellipse opacity="0.3" cx="309.516" cy="240.779" rx="2.70083" ry="2.54524" fill="white"/>
<ellipse opacity="0.5" cx="43.7533" cy="475.959" rx="2.70083" ry="2.54524" fill="white"/>
<ellipse cx="64.2794" cy="498.357" rx="2.70083" ry="2.54524" fill="white"/>
<ellipse cx="44.8339" cy="152.205" rx="2.70083" ry="2.54524" fill="white"/>
<ellipse opacity="0.5" cx="64.2794" cy="117.59" rx="2.70083" ry="2.54524" fill="white"/>
<ellipse cx="59.9586" cy="58.5405" rx="2.70083" ry="2.54524" fill="white"/>
<ellipse cx="29.7086" cy="29.0157" rx="2.70083" ry="2.54524" fill="white"/>
<ellipse opacity="0.3" cx="160.429" cy="34.1061" rx="2.70083" ry="2.54524" fill="white"/>
<ellipse opacity="0.3" cx="77.2438" cy="340.552" rx="2.70083" ry="2.54524" fill="white"/>
<ellipse opacity="0.3" cx="30.7897" cy="841.455" rx="2.70083" ry="2.54524" fill="white"/>
<ellipse opacity="0.3" cx="176.634" cy="754.917" rx="2.70083" ry="2.54524" fill="white"/>
<ellipse opacity="0.3" cx="306.274" cy="736.591" rx="2.70083" ry="2.54524" fill="white"/>
<ellipse opacity="0.3" cx="387.299" cy="495.303" rx="2.70083" ry="2.54524" fill="white"/>
<ellipse opacity="0.5" cx="234.972" cy="53.45" rx="2.70083" ry="2.54524" fill="white"/>
<ellipse cx="309.516" cy="166.458" rx="2.70083" ry="2.54524" fill="white"/>
<ellipse cx="350.568" cy="2.54524" rx="2.70083" ry="2.54524" fill="white"/>
<ellipse opacity="0.5" cx="317.077" cy="4.58143" rx="2.70083" ry="2.54524" fill="white"/>
<ellipse cx="214.446" cy="149.151" rx="2.70083" ry="2.54524" fill="white"/>
<ellipse cx="212.285" cy="503.448" rx="2.70083" ry="2.54524" fill="white"/>
<ellipse opacity="0.5" cx="278.186" cy="521.773" rx="2.70083" ry="2.54524" fill="white"/>
<ellipse cx="126.939" cy="526.864" rx="2.70083" ry="2.54524" fill="white"/>
<ellipse cx="323.56" cy="634.782" rx="2.70083" ry="2.54524" fill="white"/>
<ellipse opacity="0.5" cx="217.687" cy="720.302" rx="2.70083" ry="2.54524" fill="white"/>
<ellipse cx="46.9943" cy="734.555" rx="2.70083" ry="2.54524" fill="white"/>
<ellipse opacity="0.5" cx="143.144" cy="827.201" rx="2.70083" ry="2.54524" fill="white"/>
<ellipse cx="204.723" cy="838.4" rx="2.70083" ry="2.54524" fill="white"/>
<ellipse cx="323.56" cy="807.858" rx="2.70083" ry="2.54524" fill="white"/>
<ellipse opacity="0.5" cx="372.175" cy="684.668" rx="2.70083" ry="2.54524" fill="white"/>
<ellipse cx="387.299" cy="780.369" rx="2.70083" ry="2.54524" fill="white"/>
<ellipse cx="11.3437" cy="624.601" rx="2.70083" ry="2.54524" fill="white"/>
<ellipse cx="36.1911" cy="634.782" rx="2.70083" ry="2.54524" fill="white"/>
<ellipse opacity="0.5" cx="24.3073" cy="729.464" rx="2.70083" ry="2.54524" fill="white"/>
<ellipse cx="34.0307" cy="756.953" rx="2.70083" ry="2.54524" fill="white"/>
<ellipse opacity="0.5" cx="355.429" cy="678.051" rx="4.32133" ry="4.07238" fill="white"/>
<ellipse cx="4.32133" cy="4.07238" rx="4.32133" ry="4.07238" transform="matrix(-1 0 0 1 262.521 373.641)" fill="white"/>
<ellipse opacity="0.5" cx="22.6868" cy="145.587" rx="4.32133" ry="4.07238" fill="white"/>
<ellipse cx="321.939" cy="231.107" rx="4.32133" ry="4.07238" fill="white"/>
<ellipse cx="4.32133" cy="313.573" rx="4.32133" ry="4.07238" fill="white"/>
<ellipse cx="372.715" cy="333.935" rx="4.32133" ry="4.07238" fill="white"/>
<ellipse opacity="0.5" cx="355.429" cy="432.69" rx="4.32133" ry="4.07238" fill="white"/>
<ellipse cx="37.8116" cy="786.987" rx="4.32133" ry="4.07238" fill="white"/>
<ellipse cx="136.121" cy="718.774" rx="4.32133" ry="4.07238" fill="white"/>
<ellipse opacity="0.5" cx="286.288" cy="791.059" rx="4.32133" ry="4.07238" fill="white"/>
<ellipse cx="364.072" cy="110.972" rx="4.32133" ry="4.07238" fill="white"/>
<ellipse opacity="0.5" cx="4.32133" cy="4.07238" rx="4.32133" ry="4.07238" transform="matrix(-1 0 0 1 69.1409 409.274)" fill="white"/>
<ellipse cx="4.32133" cy="4.07238" rx="4.32133" ry="4.07238" transform="matrix(-1 0 0 1 35.6511 610.856)" fill="white"/>
<ellipse opacity="0.3" cx="118.836" cy="265.723" rx="4.32133" ry="4.07238" fill="white"/>
</g>
<defs>
<filter id="filter0_f_920_43867" x="-2" y="-2" width="394" height="848" filterUnits="userSpaceOnUse" color-interpolation-filters="sRGB">
<feFlood flood-opacity="0" result="BackgroundImageFix"/>
<feBlend mode="normal" in="SourceGraphic" in2="BackgroundImageFix" result="shape"/>
<feGaussianBlur stdDeviation="1" result="effect1_foregroundBlur_920_43867"/>
</filter>
<linearGradient id="paint0_linear_920_43867" x1="195" y1="449" x2="195" y2="844" gradientUnits="userSpaceOnUse">
<stop stop-color="#140233"/>
<stop offset="0.49" stop-color="#5F3D9C"/>
<stop offset="1" stop-color="#8CCDFF"/>
</linearGradient>
</defs>
</svg>
