<svg width="190" height="218" viewBox="0 0 190 218" fill="none" xmlns="http://www.w3.org/2000/svg">
<g id="boraami-primary-logo">
<g id="boraami-primary-icon-logo">
<path id="Subtract" fill-rule="evenodd" clip-rule="evenodd" d="M104.323 99.5475C128.49 55.7221 137.668 14.47 124.823 7.40825C111.979 0.346556 81.9747 30.1494 57.8079 73.9749C33.6411 117.8 24.4628 159.052 37.3077 166.114C50.1526 173.176 80.1565 143.373 104.323 99.5475ZM102.441 96.883C123.441 58.8004 131.789 23.1589 121.088 17.2754C110.386 11.392 84.6864 37.4945 63.6864 75.577C42.6864 113.66 34.338 149.301 45.0398 155.185C55.7416 161.068 81.4409 134.966 102.441 96.883Z" fill="#B48BFF"/>
<path id="Vector" d="M166.011 87.0419C160.516 66.0678 137.52 54.3003 117.263 62.0344C117.316 48.3619 106.612 36.9613 94.0246 33.3567C80.3335 29.4316 52.8175 39.065 46.2994 48.6403C32.4479 68.9729 60.2724 141.197 67.714 147.224C72.1966 151.126 88.4568 147.568 111.572 141.885C142.805 134.192 173.74 122.503 166.011 87.0419Z" fill="#FFFAFA"/>
<path id="Vector_2" d="M81.7824 87.6557C92.9756 94.3442 96.6199 108.829 89.9213 120.005C96.6199 108.829 111.127 105.19 122.32 111.879C111.127 105.19 107.482 90.7055 114.181 79.5291C107.482 90.7055 92.9756 94.3442 81.7824 87.6557Z" fill="#B48BFF"/>
<path id="Intersect" d="M122.247 60.53C117.847 72.6643 111.803 85.9827 104.323 99.5476C93.37 119.411 81.2179 136.393 70.0077 148.369C69.0568 148.102 68.2889 147.725 67.7145 147.225C67.343 146.924 66.9207 146.458 66.4553 145.842C77.6479 135.512 90.77 118.047 102.441 96.8831C109.251 84.5325 114.731 72.4387 118.662 61.5334C119.851 61.1341 121.047 60.8002 122.247 60.53Z" fill="#B48BFF"/>
</g>
<g id="Group 285">
<path id="Subtract_2" d="M179.652 170.064C179.652 175.771 175.019 180.397 169.303 180.397C175.019 180.397 179.652 185.023 179.652 190.729C179.652 185.023 184.285 180.397 190 180.397C184.285 180.397 179.652 175.771 179.652 170.064Z" fill="#B48BFF"/>
<path id="b" d="M14.2689 217.441C12.5923 217.441 11.138 217.08 9.9062 216.358C8.67437 215.602 7.66496 214.605 6.87795 213.368C6.09095 212.096 5.50926 210.687 5.13286 209.141C4.75647 207.56 4.58538 205.927 4.6196 204.243C4.65382 202.593 4.85912 200.995 5.23552 199.449C5.64613 197.902 6.24493 196.527 7.03193 195.324C7.81893 194.122 8.81124 193.176 10.0089 192.489C11.2065 191.767 12.6265 191.407 14.2689 191.407C15.7745 191.407 17.2287 191.767 18.6317 192.489C20.0688 193.211 21.3519 194.19 22.4811 195.428C23.6103 196.63 24.4999 198.005 25.1501 199.552C25.8002 201.098 26.1253 202.696 26.1253 204.346C26.1253 206.065 25.8002 207.714 25.1501 209.295C24.4999 210.876 23.6103 212.285 22.4811 213.523C21.3862 214.725 20.1201 215.688 18.683 216.409C17.2801 217.097 15.8087 217.441 14.2689 217.441ZM13.0371 208.161C13.7214 208.161 14.3374 207.989 14.8848 207.646C15.4665 207.302 15.9285 206.855 16.2706 206.305C16.6128 205.721 16.7839 205.102 16.7839 204.449C16.7839 203.762 16.6128 203.143 16.2706 202.593C15.9627 202.009 15.5179 201.562 14.9362 201.253C14.3887 200.909 13.7728 200.738 13.0884 200.738C12.4041 200.738 11.7711 200.909 11.1894 201.253C10.6419 201.597 10.197 202.043 9.85487 202.593C9.54692 203.143 9.39294 203.762 9.39294 204.449C9.39294 205.102 9.56403 205.721 9.9062 206.305C10.2484 206.855 10.6932 207.302 11.2407 207.646C11.7882 207.989 12.387 208.161 13.0371 208.161ZM4.6196 217.492C3.07982 217.492 1.98486 217.269 1.33473 216.822C0.684593 216.341 0.291092 215.739 0.154223 215.018C0.0515702 214.296 0.000244141 213.557 0.000244141 212.801V184.189C0.000244141 183.399 0.0686792 182.66 0.205549 181.972C0.342419 181.251 0.73592 180.666 1.38605 180.22C2.03618 179.773 3.13114 179.549 4.67093 179.549C6.21071 179.549 7.28856 179.79 7.90448 180.271C8.52039 180.718 8.87968 181.302 8.98233 182.024C9.08498 182.746 9.1192 183.485 9.08498 184.241V214.914C8.84546 215.808 8.38352 216.461 7.69917 216.873C7.04904 217.286 6.02252 217.492 4.6196 217.492Z" fill="#FFFAFA"/>
<path id="o" d="M41.5284 218C39.948 218 38.3505 217.691 36.7358 217.072C35.1211 216.419 33.6266 215.508 32.2524 214.34C30.9125 213.137 29.8303 211.711 29.0058 210.061C28.2156 208.377 27.8206 206.504 27.8206 204.442C27.8206 202.551 28.1813 200.781 28.9028 199.132C29.6242 197.482 30.6033 196.039 31.8401 194.801C33.1113 193.53 34.5542 192.533 36.1689 191.811C37.818 191.09 39.5701 190.729 41.4253 190.729C43.9676 190.729 46.2694 191.347 48.3307 192.585C50.392 193.788 52.0411 195.42 53.2779 197.482C54.5147 199.544 55.1331 201.847 55.1331 204.39C55.1331 206.555 54.7208 208.48 53.8963 210.164C53.0718 211.848 51.9896 213.274 50.6497 214.443C49.3099 215.611 47.8326 216.488 46.2179 217.072C44.6375 217.691 43.0743 218 41.5284 218ZM41.4253 208.566C41.9406 208.566 42.5247 208.446 43.1774 208.205C43.8645 207.93 44.4486 207.483 44.9295 206.865C45.4449 206.246 45.7025 205.404 45.7025 204.339C45.7025 203.479 45.5136 202.74 45.1357 202.122C44.7921 201.503 44.294 201.022 43.6412 200.678C42.9885 200.335 42.2326 200.163 41.3738 200.163C40.6179 200.163 39.9308 200.352 39.3124 200.73C38.694 201.074 38.1959 201.572 37.818 202.225C37.4401 202.844 37.2511 203.565 37.2511 204.39C37.2511 205.421 37.4916 206.246 37.9726 206.865C38.4536 207.483 39.0204 207.93 39.6732 208.205C40.3259 208.446 40.91 208.566 41.4253 208.566Z" fill="#FFFAFA"/>
<path id="r" d="M62.013 217.492C60.455 217.492 59.3471 217.269 58.6893 216.822C58.0315 216.342 57.6334 215.741 57.4949 215.019C57.391 214.264 57.3391 213.508 57.3391 212.753V195.961C57.3391 195.171 57.4084 194.433 57.5468 193.746C57.6853 193.025 58.0835 192.441 58.7413 191.995C59.3991 191.548 60.5069 191.325 62.0649 191.325C63.5882 191.325 64.6615 191.531 65.2846 191.943C65.9424 192.355 66.3406 192.819 66.4791 193.334C66.6176 193.815 66.6868 194.192 66.6868 194.467L65.8559 194.158C65.8559 194.158 65.9944 194.004 66.2713 193.695C66.5483 193.385 66.9464 193.025 67.4658 192.613C68.0197 192.201 68.6602 191.84 69.3872 191.531C70.1489 191.222 70.9971 191.068 71.9319 191.068C72.2435 191.068 72.6243 191.102 73.0744 191.171C73.5591 191.205 74.0611 191.291 74.5804 191.428C75.1343 191.565 75.6363 191.772 76.0864 192.046C76.5711 192.321 76.9519 192.682 77.2289 193.128C77.5405 193.574 77.6963 194.124 77.6963 194.776C77.6963 196.493 77.3155 197.953 76.5538 199.155C75.8267 200.356 74.8574 200.957 73.6456 200.957C72.9878 200.957 72.5204 200.923 72.2435 200.854C71.9665 200.751 71.7588 200.665 71.6203 200.597C71.5164 200.494 71.3779 200.408 71.2048 200.339C71.0664 200.236 70.7894 200.185 70.3739 200.185C69.8546 200.185 69.3699 200.253 68.9199 200.391C68.5044 200.494 68.1236 200.665 67.7774 200.906C67.4658 201.146 67.2234 201.438 67.0503 201.782C66.8772 202.091 66.7907 202.434 66.7907 202.812V212.856C66.7907 213.612 66.7214 214.35 66.5829 215.071C66.4444 215.792 66.0463 216.376 65.3885 216.822C64.7307 217.269 63.6055 217.492 62.013 217.492Z" fill="#FFFAFA"/>
<path id="a" d="M98.2994 217.322C96.7587 217.322 95.6118 217.066 94.8585 216.554C94.1395 216.042 93.7972 215.461 93.8314 214.812H94.5504C94.3792 215.051 94.0368 215.376 93.5233 215.786C93.0439 216.161 92.3934 216.52 91.5717 216.861C90.75 217.168 89.74 217.322 88.5416 217.322C87.0009 217.322 85.5116 216.981 84.0736 216.298C82.6698 215.581 81.403 214.608 80.2732 213.378C79.1776 212.149 78.3045 210.766 77.654 209.23C77.0035 207.659 76.6782 206.02 76.6782 204.313C76.6782 202.64 77.0035 201.035 77.654 199.498C78.3045 197.962 79.1947 196.596 80.3246 195.401C81.4544 194.172 82.7212 193.216 84.125 192.533C85.5287 191.816 87.0009 191.457 88.5416 191.457C89.7057 191.457 90.6815 191.628 91.469 191.969C92.2907 192.311 92.9412 192.686 93.4205 193.096C93.9341 193.506 94.2765 193.847 94.4477 194.12H93.8827C93.8485 193.267 94.1909 192.601 94.9099 192.123C95.6631 191.645 96.8101 191.406 98.3508 191.406C99.8915 191.406 100.97 191.645 101.586 192.123C102.237 192.567 102.631 193.147 102.767 193.864C102.904 194.581 102.973 195.316 102.973 196.067V212.713C102.973 213.464 102.904 214.198 102.767 214.915C102.631 215.632 102.237 216.212 101.586 216.656C100.97 217.1 99.8744 217.322 98.2994 217.322ZM89.8256 208.052C90.4761 208.052 91.0581 207.881 91.5717 207.54C92.1195 207.198 92.5475 206.754 92.8556 206.208C93.198 205.627 93.3692 205.013 93.3692 204.364C93.3692 203.681 93.198 203.067 92.8556 202.52C92.5475 201.974 92.1195 201.53 91.5717 201.189C91.0239 200.847 90.4076 200.676 89.7228 200.676C89.0381 200.676 88.4047 200.847 87.8226 201.189C87.2748 201.53 86.8297 201.991 86.4874 202.571C86.145 203.118 85.9738 203.732 85.9738 204.415C85.9738 205.064 86.145 205.662 86.4874 206.208C86.864 206.754 87.3433 207.198 87.9254 207.54C88.5074 207.881 89.1408 208.052 89.8256 208.052Z" fill="#FFFAFA"/>
<path id="a_2" d="M126.799 217.322C125.258 217.322 124.112 217.066 123.358 216.554C122.639 216.042 122.297 215.461 122.331 214.812H123.05C122.879 215.051 122.537 215.376 122.023 215.786C121.544 216.161 120.893 216.52 120.071 216.861C119.25 217.168 118.24 217.322 117.041 217.322C115.501 217.322 114.011 216.981 112.573 216.298C111.17 215.581 109.903 214.608 108.773 213.378C107.677 212.149 106.804 210.766 106.154 209.23C105.503 207.659 105.178 206.02 105.178 204.313C105.178 202.64 105.503 201.035 106.154 199.498C106.804 197.962 107.694 196.596 108.824 195.401C109.954 194.172 111.221 193.216 112.625 192.533C114.028 191.816 115.501 191.457 117.041 191.457C118.205 191.457 119.181 191.628 119.969 191.969C120.79 192.311 121.441 192.686 121.92 193.096C122.434 193.506 122.776 193.847 122.947 194.12H122.383C122.348 193.267 122.691 192.601 123.41 192.123C124.163 191.645 125.31 191.406 126.851 191.406C128.391 191.406 129.47 191.645 130.086 192.123C130.737 192.567 131.13 193.147 131.267 193.864C131.404 194.581 131.473 195.316 131.473 196.067V212.713C131.473 213.464 131.404 214.198 131.267 214.915C131.13 215.632 130.737 216.212 130.086 216.656C129.47 217.1 128.374 217.322 126.799 217.322ZM118.325 208.052C118.976 208.052 119.558 207.881 120.071 207.54C120.619 207.198 121.047 206.754 121.355 206.208C121.698 205.627 121.869 205.013 121.869 204.364C121.869 203.681 121.698 203.067 121.355 202.52C121.047 201.974 120.619 201.53 120.071 201.189C119.524 200.847 118.907 200.676 118.223 200.676C117.538 200.676 116.904 200.847 116.322 201.189C115.775 201.53 115.33 201.991 114.987 202.571C114.645 203.118 114.474 203.732 114.474 204.415C114.474 205.064 114.645 205.662 114.987 206.208C115.364 206.754 115.843 207.198 116.425 207.54C117.007 207.881 117.641 208.052 118.325 208.052Z" fill="#FFFAFA"/>
<path id="m" d="M139.153 217.493C137.611 217.493 136.514 217.269 135.863 216.822C135.212 216.341 134.818 215.739 134.681 215.017C134.578 214.294 134.527 213.555 134.527 212.799V195.932C134.527 195.141 134.595 194.401 134.732 193.714C134.87 192.991 135.264 192.407 135.915 191.96C136.566 191.513 137.679 191.289 139.256 191.289C140.798 191.289 141.911 191.599 142.597 192.218C143.316 192.802 143.676 193.765 143.676 195.106L142.802 194.848C142.802 194.848 142.922 194.676 143.162 194.332C143.436 193.954 143.813 193.524 144.293 193.043C144.807 192.562 145.424 192.149 146.143 191.805C146.863 191.427 147.685 191.238 148.61 191.238C149.673 191.238 150.649 191.375 151.54 191.65C152.431 191.925 153.236 192.355 153.956 192.94C154.71 193.49 155.361 194.178 155.909 195.003C156.286 194.556 156.8 194.04 157.451 193.456C158.102 192.871 158.873 192.355 159.764 191.908C160.689 191.461 161.717 191.238 162.848 191.238C164.87 191.238 166.583 191.753 167.988 192.785C169.427 193.817 170.507 195.313 171.226 197.273C171.98 199.233 172.357 201.605 172.357 204.391V212.799C172.357 213.555 172.289 214.294 172.152 215.017C172.015 215.739 171.621 216.341 170.969 216.822C170.318 217.269 169.205 217.493 167.628 217.493C166.086 217.493 164.99 217.252 164.339 216.77C163.688 216.289 163.294 215.687 163.157 214.965C163.054 214.243 163.002 213.504 163.002 212.747V204.339C163.002 203.514 162.9 202.843 162.694 202.328C162.523 201.777 162.249 201.365 161.872 201.09C161.529 200.815 161.084 200.677 160.535 200.677C159.953 200.677 159.473 200.797 159.096 201.038C158.753 201.279 158.496 201.674 158.325 202.224C158.188 202.74 158.119 203.462 158.119 204.391V212.799C158.119 213.555 158.051 214.294 157.914 215.017C157.777 215.739 157.383 216.341 156.732 216.822C156.081 217.269 154.967 217.493 153.391 217.493C151.849 217.493 150.752 217.252 150.101 216.77C149.45 216.289 149.056 215.687 148.919 214.965C148.816 214.243 148.765 213.504 148.765 212.747V204.339C148.765 203.514 148.679 202.826 148.508 202.276C148.336 201.726 148.062 201.33 147.685 201.09C147.343 200.815 146.88 200.677 146.297 200.677C145.612 200.677 145.098 200.849 144.755 201.193C144.413 201.537 144.173 201.984 144.036 202.534C143.933 203.084 143.882 203.686 143.882 204.339V212.85C143.882 213.607 143.813 214.346 143.676 215.068C143.539 215.79 143.145 216.375 142.494 216.822C141.843 217.269 140.729 217.493 139.153 217.493Z" fill="#FFFAFA"/>
<path id="i" d="M179.711 217.492C178.165 217.492 177.065 217.269 176.412 216.823C175.759 216.342 175.364 215.742 175.226 215.021C175.123 214.3 175.072 213.562 175.072 212.807V196.024C175.072 195.269 175.141 194.548 175.278 193.862C175.415 193.141 175.811 192.557 176.464 192.111C177.117 191.631 178.216 191.391 179.763 191.391C181.309 191.391 182.392 191.631 183.01 192.111C183.663 192.557 184.058 193.141 184.196 193.862C184.333 194.582 184.402 195.337 184.402 196.127V212.859C184.402 213.614 184.333 214.352 184.196 215.072C184.058 215.793 183.663 216.377 183.01 216.823C182.392 217.269 181.292 217.492 179.711 217.492Z" fill="#FFFAFA"/>
</g>
</g>
</svg>
