<svg width="36" height="36" viewBox="0 0 36 36" fill="none" xmlns="http://www.w3.org/2000/svg">
<path id="loader" d="M18 0C17.5226 0 17.0648 0.189642 16.7272 0.527208C16.3896 0.864773 16.2 1.32261 16.2 1.8V5.4C16.2 5.87739 16.3896 6.33523 16.7272 6.67279C17.0648 7.01036 17.5226 7.2 18 7.2C18.4774 7.2 18.9352 7.01036 19.2728 6.67279C19.6104 6.33523 19.8 5.87739 19.8 5.4V1.8C19.8 1.32261 19.6104 0.864773 19.2728 0.527208C18.9352 0.189642 18.4774 0 18 0ZM34.2 16.2H30.6C30.1226 16.2 29.6648 16.3896 29.3272 16.7272C28.9896 17.0648 28.8 17.5226 28.8 18C28.8 18.4774 28.9896 18.9352 29.3272 19.2728C29.6648 19.6104 30.1226 19.8 30.6 19.8H34.2C34.6774 19.8 35.1352 19.6104 35.4728 19.2728C35.8104 18.9352 36 18.4774 36 18C36 17.5226 35.8104 17.0648 35.4728 16.7272C35.1352 16.3896 34.6774 16.2 34.2 16.2ZM7.2 18C7.2 17.5226 7.01036 17.0648 6.67279 16.7272C6.33523 16.3896 5.87739 16.2 5.4 16.2H1.8C1.32261 16.2 0.864773 16.3896 0.527208 16.7272C0.189642 17.0648 0 17.5226 0 18C0 18.4774 0.189642 18.9352 0.527208 19.2728C0.864773 19.6104 1.32261 19.8 1.8 19.8H5.4C5.87739 19.8 6.33523 19.6104 6.67279 19.2728C7.01036 18.9352 7.2 18.4774 7.2 18ZM7.596 5.4C7.24512 5.06821 6.77681 4.8894 6.29409 4.90291C5.81137 4.91641 5.35379 5.12112 5.022 5.472C4.69021 5.82288 4.5114 6.29119 4.52491 6.77391C4.53841 7.25663 4.74312 7.71421 5.094 8.046L7.686 10.548C7.85994 10.716 8.06594 10.8471 8.2917 10.9337C8.51746 11.0203 8.75835 11.0606 9 11.052C9.24247 11.0511 9.48225 11.0012 9.70496 10.9053C9.92766 10.8094 10.1287 10.6695 10.296 10.494C10.6313 10.1567 10.8194 9.70053 10.8194 9.225C10.8194 8.74946 10.6313 8.29325 10.296 7.956L7.596 5.4ZM27 11.052C27.4634 11.0502 27.9083 10.8696 28.242 10.548L30.834 8.046C31.1502 7.71561 31.3288 7.27726 31.3335 6.81996C31.3382 6.36267 31.1687 5.92073 30.8593 5.5839C30.55 5.24708 30.1241 5.04062 29.668 5.00646C29.212 4.9723 28.7601 5.11301 28.404 5.4L25.812 7.956C25.4767 8.29325 25.2886 8.74946 25.2886 9.225C25.2886 9.70053 25.4767 10.1567 25.812 10.494C26.1237 10.8229 26.5479 11.0222 27 11.052ZM18 28.8C17.5226 28.8 17.0648 28.9896 16.7272 29.3272C16.3896 29.6648 16.2 30.1226 16.2 30.6V34.2C16.2 34.6774 16.3896 35.1352 16.7272 35.4728C17.0648 35.8104 17.5226 36 18 36C18.4774 36 18.9352 35.8104 19.2728 35.4728C19.6104 35.1352 19.8 34.6774 19.8 34.2V30.6C19.8 30.1226 19.6104 29.6648 19.2728 29.3272C18.9352 28.9896 18.4774 28.8 18 28.8ZM28.314 25.452C27.9703 25.1202 27.5088 24.9386 27.0312 24.947C26.5535 24.9554 26.0988 25.1533 25.767 25.497C25.4352 25.8407 25.2536 26.3022 25.262 26.7798C25.2704 27.2575 25.4683 27.7122 25.812 28.044L28.404 30.6C28.7377 30.9216 29.1826 31.1022 29.646 31.104C29.8872 31.1054 30.1262 31.0583 30.3488 30.9656C30.5715 30.8728 30.7732 30.7362 30.942 30.564C31.1107 30.3967 31.2446 30.1976 31.336 29.9782C31.4274 29.7589 31.4744 29.5236 31.4744 29.286C31.4744 29.0484 31.4274 28.8131 31.336 28.5938C31.2446 28.3744 31.1107 28.1753 30.942 28.008L28.314 25.452ZM7.686 25.452L5.094 27.954C4.92529 28.1213 4.79138 28.3204 4.7 28.5398C4.60861 28.7591 4.56156 28.9944 4.56156 29.232C4.56156 29.4696 4.60861 29.7049 4.7 29.9242C4.79138 30.1436 4.92529 30.3427 5.094 30.51C5.26283 30.6822 5.46455 30.8188 5.68718 30.9116C5.90981 31.0043 6.14882 31.0514 6.39 31.05C6.83373 31.0538 7.26321 30.8935 7.596 30.6L10.188 28.098C10.5317 27.7662 10.7296 27.3115 10.738 26.8338C10.7464 26.3562 10.5648 25.8947 10.233 25.551C9.90121 25.2073 9.44647 25.0094 8.96882 25.001C8.49116 24.9926 8.02972 25.1742 7.686 25.506V25.452Z" fill="#8F66D6"/>
</svg>
