<svg width="28" height="28" viewBox="0 0 28 28" fill="none" xmlns="http://www.w3.org/2000/svg">
<circle cx="14" cy="14" r="8.7" stroke="#AA7AFF" stroke-width="2.6"/>
<circle cx="14" cy="14" r="8.7" stroke="black" stroke-opacity="0.16" stroke-width="2.6"/>
<path d="M19.5546 3.87268C19.7402 3.50905 20.2598 3.50905 20.4454 3.87268L21.3832 5.71044C21.4559 5.8528 21.5922 5.95185 21.7501 5.97696L23.7877 6.30103C24.1909 6.36515 24.3514 6.85929 24.0629 7.14815L22.6049 8.60802C22.492 8.72111 22.4399 8.88137 22.4648 9.03925L22.7863 11.0773C22.8499 11.4806 22.4295 11.786 22.0657 11.6008L20.2267 10.6653C20.0843 10.5929 19.9157 10.5929 19.7733 10.6653L17.9343 11.6008C17.5705 11.786 17.1501 11.4806 17.2137 11.0773L17.5352 9.03925C17.5601 8.88137 17.508 8.72111 17.3951 8.60802L15.9371 7.14815C15.6486 6.85929 15.8091 6.36515 16.2123 6.30103L18.2499 5.97696C18.4078 5.95185 18.5441 5.85281 18.6168 5.71045L19.5546 3.87268Z" fill="#B48BFF"/>
<path d="M19.5546 3.87268C19.7402 3.50905 20.2598 3.50905 20.4454 3.87268L21.3832 5.71044C21.4559 5.8528 21.5922 5.95185 21.7501 5.97696L23.7877 6.30103C24.1909 6.36515 24.3514 6.85929 24.0629 7.14815L22.6049 8.60802C22.492 8.72111 22.4399 8.88137 22.4648 9.03925L22.7863 11.0773C22.8499 11.4806 22.4295 11.786 22.0657 11.6008L20.2267 10.6653C20.0843 10.5929 19.9157 10.5929 19.7733 10.6653L17.9343 11.6008C17.5705 11.786 17.1501 11.4806 17.2137 11.0773L17.5352 9.03925C17.5601 8.88137 17.508 8.72111 17.3951 8.60802L15.9371 7.14815C15.6486 6.85929 15.8091 6.36515 16.2123 6.30103L18.2499 5.97696C18.4078 5.95185 18.5441 5.85281 18.6168 5.71045L19.5546 3.87268Z" fill="white" fill-opacity="0.8"/>
</svg>
