<svg width="28" height="28" viewBox="0 0 28 28" fill="none" xmlns="http://www.w3.org/2000/svg">
<circle cx="14" cy="14" r="8.7" stroke="#B48BFF" stroke-width="2.6"/>
<circle cx="14" cy="14" r="8.7" stroke="white" stroke-opacity="0.56" stroke-width="2.6"/>
<path d="M20.5546 5.87268C20.7402 5.50905 21.2598 5.50905 21.4454 5.87268L22.3832 7.71044C22.4559 7.8528 22.5922 7.95185 22.7501 7.97696L24.7877 8.30103C25.1909 8.36515 25.3514 8.85929 25.0629 9.14815L23.6049 10.608C23.492 10.7211 23.4399 10.8814 23.4648 11.0392L23.7863 13.0773C23.8499 13.4806 23.4295 13.786 23.0657 13.6008L21.2267 12.6653C21.0843 12.5929 20.9157 12.5929 20.7733 12.6653L18.9343 13.6008C18.5705 13.786 18.1501 13.4806 18.2137 13.0773L18.5352 11.0392C18.5601 10.8814 18.508 10.7211 18.3951 10.608L16.9371 9.14815C16.6486 8.85929 16.8091 8.36515 17.2123 8.30103L19.2499 7.97696C19.4078 7.95185 19.5441 7.85281 19.6168 7.71045L20.5546 5.87268Z" fill="#9B64FF"/>
<path d="M20.5546 5.87268C20.7402 5.50905 21.2598 5.50905 21.4454 5.87268L22.3832 7.71044C22.4559 7.8528 22.5922 7.95185 22.7501 7.97696L24.7877 8.30103C25.1909 8.36515 25.3514 8.85929 25.0629 9.14815L23.6049 10.608C23.492 10.7211 23.4399 10.8814 23.4648 11.0392L23.7863 13.0773C23.8499 13.4806 23.4295 13.786 23.0657 13.6008L21.2267 12.6653C21.0843 12.5929 20.9157 12.5929 20.7733 12.6653L18.9343 13.6008C18.5705 13.786 18.1501 13.4806 18.2137 13.0773L18.5352 11.0392C18.5601 10.8814 18.508 10.7211 18.3951 10.608L16.9371 9.14815C16.6486 8.85929 16.8091 8.36515 17.2123 8.30103L19.2499 7.97696C19.4078 7.95185 19.5441 7.85281 19.6168 7.71045L20.5546 5.87268Z" fill="black" fill-opacity="0.39"/>
</svg>
